<svg xmlns="http://www.w3.org/2000/svg" width="41.864" height="38.766" viewBox="0 0 41.864 38.766">
  <g id="HomeHero_Logo_Dark" data-name="HomeHero Logo Dark" transform="translate(-15.296 -12.382)">
    <path id="Union_4" data-name="Union 4" d="M8.516,19.67c-.113-.935-.238-2.116-.362-3.365A28.5,28.5,0,0,0,0,19.893l6.482-14.3a3.584,3.584,0,0,1,3.576-2.458,1.565,1.565,0,1,1,1.565-1.565,1.564,1.564,0,0,1-1.565,1.565,3.584,3.584,0,0,1,3.576,2.458l6.258,14.081a27.4,27.4,0,0,0-7.951-3.377c-.1,1.2-.2,2.363-.3,3.379-.447,4.47-.894,6.481-1.565,6.481S8.963,23.47,8.516,19.67Z" transform="translate(26.058 19.835)" fill="none" stroke="#fff" stroke-width="2" opacity="0.8"/>
    <path id="Path_264" data-name="Path 264" d="M61,73.764l6.482-14.305a3.83,3.83,0,0,1,7.153,0L80.893,73.54s-5.588-3.576-9.835-3.576S61,73.764,61,73.764Z" transform="translate(-34.942 -34.035)" fill="#fc0" stroke="#fc0" stroke-width="1"/>
    <g id="Group_427" data-name="Group 427" transform="translate(27.645 19.836)">
      <circle id="Ellipse_273" data-name="Ellipse 273" cx="1.565" cy="1.565" r="1.565" transform="translate(6.907 0)" fill="#fff" stroke="#707070" stroke-miterlimit="10" stroke-width="1"/>
      <path id="Path_265" data-name="Path 265" d="M80.148,60.459A3.709,3.709,0,0,0,76.5,58a3.584,3.584,0,0,0-3.576,2.459L68.1,71.813s0,.022.022,0l5.767-9.1h.022c.045.4.671,7.912,1.118,11.6.447,3.8.894,6.482,1.565,6.482s1.118-2.012,1.565-6.482c.425-4.336.872-11.422.894-11.824h.022l5.99,9.768h.022Z" transform="translate(-68.1 -54.647)" fill="#fff" stroke="#707070" stroke-miterlimit="10" stroke-width="1"/>
    </g>
    <g id="Group_428" data-name="Group 428" transform="translate(16 13.031)">
      <path id="Path_266" data-name="Path 266" d="M16,29.807l1.274,1.542L36.116,15.793l19.066,15.78,1.274-1.542L36.116,13.2Z" transform="translate(-16 -13.2)" fill="#fc0" stroke="#fc0" stroke-width="1"/>
      <path id="Path_267" data-name="Path 267" d="M71.419,116.179a2.071,2.071,0,0,1-2.157,1.967h-22.4a2.072,2.072,0,0,1-2.157-1.967V102.5H42.5v13.679a4.193,4.193,0,0,0,4.362,3.979h22.4a4.193,4.193,0,0,0,4.362-3.979V102.5H71.419Z" transform="translate(-38.074 -82.54)" fill="#fc0" stroke="#fc0" stroke-width="1"/>
    </g>
  </g>
</svg>
