<svg width="316" height="316" viewBox="0 0 316 316" fill="none" xmlns="http://www.w3.org/2000/svg">
<g clip-path="url(#clip0_21:3015)">
<path d="M227.551 250.805C181.559 291.796 123.491 267.313 75.7458 224.846C28.0004 182.38 -3.28528 105.662 42.6667 87.8376C65.1446 79.3444 88.1405 93.6992 100.695 86.5218C118.51 76.3538 99.8577 57.2539 116.198 42.5003C141.027 20.0909 194.711 38.5528 237.953 116.906C277.767 188.999 247.558 233.021 227.551 250.805Z" fill="#FFCD34"/>
<path d="M248.735 249.3L111.174 249.109L157.091 33.9294H294.652L248.735 249.3Z" fill="white"/>
<path d="M248.735 249.874L111.174 249.683C110.868 249.683 110.6 249.415 110.6 249.109C110.6 249.071 110.6 249.033 110.6 248.994L156.517 33.8146C156.556 33.5469 156.823 33.3556 157.091 33.3556H294.652C294.958 33.3556 295.226 33.6234 295.226 33.9294C295.226 33.9677 295.226 34.0059 295.226 34.0442L249.309 249.415C249.232 249.683 249.002 249.874 248.735 249.874ZM111.901 248.535L248.275 248.726L293.925 34.5032H157.55L111.901 248.535Z" fill="#1A1A1A"/>
<path d="M187.862 53.2519L228.196 53.2519C228.558 53.2519 228.799 53.4859 228.799 53.8371C228.799 54.1882 228.558 54.4222 228.196 54.4222L187.862 54.4222C187.501 54.4222 187.259 54.1882 187.259 53.8371C187.259 53.4859 187.561 53.2519 187.862 53.2519Z" fill="#1A1A1A"/>
<path d="M235.552 53.2519H248.393C248.755 53.2519 248.996 53.4859 248.996 53.8371C248.996 54.1882 248.755 54.4222 248.393 54.4222H235.552C235.19 54.4222 234.949 54.1882 234.949 53.8371C234.949 53.4859 235.19 53.2519 235.552 53.2519Z" fill="#1A1A1A"/>
<path d="M185.521 64.663H225.855C226.217 64.663 226.458 64.8971 226.458 65.2482C226.458 65.5993 226.217 65.8334 225.855 65.8334H185.521C185.16 65.8334 184.919 65.5993 184.919 65.2482C184.919 64.8971 185.22 64.663 185.521 64.663Z" fill="#1A1A1A"/>
<path d="M233.211 64.663H246.053C246.414 64.663 246.656 64.8971 246.656 65.2482C246.656 65.5993 246.414 65.8334 246.053 65.8334H233.211C232.849 65.8334 232.608 65.5993 232.608 65.2482C232.608 64.8971 232.849 64.663 233.211 64.663Z" fill="#1A1A1A"/>
<path d="M182.303 74.3185H222.637C222.999 74.3185 223.24 74.5526 223.24 74.9037C223.24 75.2548 222.999 75.4889 222.637 75.4889H182.303C181.941 75.4889 181.7 75.2548 181.7 74.9037C181.7 74.5526 182.001 74.3185 182.303 74.3185Z" fill="#1A1A1A"/>
<path d="M229.992 74.3185H242.834C243.196 74.3185 243.437 74.5526 243.437 74.9037C243.437 75.2548 243.196 75.4889 242.834 75.4889H229.992C229.631 75.4889 229.389 75.2548 229.389 74.9037C229.389 74.5526 229.631 74.3185 229.992 74.3185Z" fill="#1A1A1A"/>
<path d="M180.255 84.8518H220.589C220.95 84.8518 221.192 85.0859 221.192 85.437C221.192 85.7881 220.95 86.0222 220.589 86.0222H180.255C179.893 86.0222 179.652 85.7881 179.652 85.437C179.652 85.0859 179.953 84.8518 180.255 84.8518Z" fill="#1A1A1A"/>
<path d="M227.944 84.8518H240.786C241.148 84.8518 241.389 85.0859 241.389 85.437C241.389 85.7881 241.148 86.0222 240.786 86.0222H227.944C227.582 86.0222 227.341 85.7881 227.341 85.437C227.341 85.0859 227.582 84.8518 227.944 84.8518Z" fill="#1A1A1A"/>
<path d="M177.036 95.9704H217.37C217.732 95.9704 217.973 96.2044 217.973 96.5556C217.973 96.9067 217.732 97.1407 217.37 97.1407H177.036C176.675 97.1407 176.433 96.9067 176.433 96.5556C176.433 96.2044 176.735 95.9704 177.036 95.9704Z" fill="#1A1A1A"/>
<path d="M224.726 95.9704H237.568C237.929 95.9704 238.17 96.2044 238.17 96.5556C238.17 96.9067 237.929 97.1407 237.568 97.1407H224.726C224.364 97.1407 224.123 96.9067 224.123 96.5556C224.123 96.2044 224.364 95.9704 224.726 95.9704Z" fill="#1A1A1A"/>
<path d="M174.403 106.796H214.737C215.099 106.796 215.34 107.03 215.34 107.381C215.34 107.733 215.099 107.967 214.737 107.967H174.403C174.041 107.967 173.8 107.733 173.8 107.381C173.8 107.03 174.101 106.796 174.403 106.796Z" fill="#1A1A1A"/>
<path d="M222.092 106.796H234.934C235.296 106.796 235.537 107.03 235.537 107.381C235.537 107.733 235.296 107.967 234.934 107.967H222.092C221.731 107.967 221.489 107.733 221.489 107.381C221.489 107.03 221.731 106.796 222.092 106.796Z" fill="#1A1A1A"/>
<path d="M172.647 117.037H212.981C213.343 117.037 213.584 117.271 213.584 117.622C213.584 117.973 213.343 118.207 212.981 118.207H172.647C172.286 118.207 172.044 117.973 172.044 117.622C172.044 117.271 172.346 117.037 172.647 117.037Z" fill="#1A1A1A"/>
<path d="M220.337 117.037H233.179C233.54 117.037 233.781 117.271 233.781 117.622C233.781 117.973 233.54 118.207 233.179 118.207H220.337C219.975 118.207 219.734 117.973 219.734 117.622C219.734 117.271 219.975 117.037 220.337 117.037Z" fill="#1A1A1A"/>
<path d="M104.879 91.8275C101.016 91.8275 97.8851 88.6959 97.8851 84.8329C97.8851 80.97 101.016 77.8384 104.879 77.8384C108.742 77.8384 111.873 80.97 111.873 84.8329C111.873 88.6959 108.742 91.8275 104.879 91.8275Z" fill="white" stroke="#1A1A1A" stroke-width="2.87931" stroke-miterlimit="3.0354" stroke-linecap="round" stroke-linejoin="round"/>
<path d="M116.025 98.6223C114.48 98.6223 113.228 97.3696 113.228 95.8244C113.228 94.2792 114.48 93.0266 116.025 93.0266C117.57 93.0266 118.823 94.2792 118.823 95.8244C118.823 97.3696 117.57 98.6223 116.025 98.6223Z" fill="white" stroke="#1A1A1A" stroke-width="2.87931" stroke-miterlimit="3.0354" stroke-linecap="round" stroke-linejoin="round"/>
<path d="M57.6753 39.8458C57.7863 39.8458 57.8973 39.8458 58.0083 39.8458C59.7401 31.9186 67.5557 26.9003 75.4822 28.6323C78.2354 29.2318 80.7665 30.6085 82.7648 32.607C88.1824 26.5894 97.4633 26.1231 103.503 31.5411C106.078 33.8726 107.766 37.0479 108.232 40.4897C115.981 42.8656 120.333 51.0815 117.957 58.8532C115.581 66.6249 107.366 70.9549 99.5948 68.579C98.2848 68.1793 97.0414 67.6019 95.9091 66.847C93.0227 74.4411 84.5411 78.2381 76.9698 75.3737C72.4181 73.6417 69.0433 69.8002 67.9109 65.0706C62.0937 70.7328 52.7906 70.5996 47.151 64.7819C41.4892 58.9642 41.6224 49.6604 47.4396 44.0203C50.1706 41.3335 53.8341 39.8458 57.6753 39.8458Z" fill="white" stroke="#1A1A1A" stroke-width="2.87931" stroke-miterlimit="3.0354" stroke-linecap="round" stroke-linejoin="round"/>
<path d="M170.307 127.863H210.641C211.002 127.863 211.244 128.097 211.244 128.448C211.244 128.799 211.002 129.033 210.641 129.033H170.307C169.945 129.033 169.704 128.799 169.704 128.448C169.704 128.097 170.005 127.863 170.307 127.863Z" fill="#1A1A1A"/>
<path d="M217.996 127.863H230.838C231.2 127.863 231.441 128.097 231.441 128.448C231.441 128.799 231.2 129.033 230.838 129.033H217.996C217.634 129.033 217.393 128.799 217.393 128.448C217.393 128.097 217.634 127.863 217.996 127.863Z" fill="#1A1A1A"/>
<path d="M168.551 138.396H208.885C209.247 138.396 209.488 138.63 209.488 138.981C209.488 139.333 209.247 139.567 208.885 139.567H168.551C168.189 139.567 167.948 139.333 167.948 138.981C167.948 138.63 168.25 138.396 168.551 138.396Z" fill="#1A1A1A"/>
<path d="M216.24 138.396H229.082C229.444 138.396 229.685 138.63 229.685 138.981C229.685 139.333 229.444 139.567 229.082 139.567H216.24C215.879 139.567 215.638 139.333 215.638 138.981C215.638 138.63 215.879 138.396 216.24 138.396Z" fill="#1A1A1A"/>
<path d="M236.681 233.903L195.915 233.847L209.522 169.874H250.289L236.681 233.903Z" fill="#FECE2F"/>
<path d="M236.681 234.074L195.915 234.017C195.824 234.017 195.744 233.938 195.744 233.847C195.744 233.835 195.744 233.824 195.744 233.813L209.352 169.84C209.364 169.761 209.443 169.704 209.522 169.704H250.289C250.38 169.704 250.459 169.783 250.459 169.874C250.459 169.886 250.459 169.897 250.459 169.908L236.851 233.938C236.829 234.017 236.761 234.074 236.681 234.074ZM196.13 233.676L236.545 233.733L250.074 170.045H209.658L196.13 233.676Z" fill="#1A1A1A"/>
<path d="M43.5966 269.134C43.5966 269.134 42.9943 289.666 43.867 289.22C44.7397 288.773 46.4088 281.344 46.4088 281.344C46.4088 281.344 48.7574 293.558 49.7578 292.989C50.7581 292.42 50.5472 283.064 51.4393 282.919C52.3314 282.773 54.0842 295.364 55.6227 294.818C57.1744 294.235 55.5278 282.648 55.5278 282.648C55.5278 282.648 59.548 291.927 60.6277 291.134C61.7074 290.341 59.7015 281.188 59.7015 281.188C59.7015 281.188 63.5265 285.569 65.6689 283.557L58.3414 273.651L56.7329 269.3C56.7461 269.263 49.8545 272.698 43.5966 269.134Z" fill="#FECE2F"/>
<path d="M147.453 105.027C147.453 105.027 152.87 100.775 153.356 101.536C153.843 102.296 150.324 108.188 150.324 108.188C150.324 108.188 149.858 107.014 147.453 105.027Z" fill="#FECE2F"/>
<path d="M153.36 159.45C153.36 159.45 145.381 170.688 134.627 168.426C123.873 166.165 121.02 160.702 120.659 155.324L126.51 154.586L130.261 135.128L126.681 128.399C126.681 128.399 116.297 120.474 116.884 119.884C117.471 119.294 121.485 109.757 121.485 109.757L126.807 103.876C126.807 103.876 138.184 101.067 144.274 103.563C149.047 105.509 152.308 109.941 152.762 115.058C153.106 118.707 153.3 123.018 150.678 128.513C148.056 134.008 145.933 134.305 145.933 134.305L144.767 156.191C144.767 156.191 151.64 158.377 153.36 159.45Z" fill="#FECE2F"/>
<path d="M180.27 131.452C180.27 131.452 175.05 126.03 172.591 123.604C170.131 121.178 166.256 118.123 165.994 118.744C165.732 119.365 170.484 125.041 170.264 125.424C169.993 125.832 169.935 126.232 169.33 125.807C168.711 125.419 163.462 121.499 161.563 120.574C159.664 119.648 158.914 120.222 159.284 121.193C159.654 122.164 161.066 123.631 161.066 123.631C161.066 123.631 156.475 120.701 156.043 121.681C155.611 122.662 157.604 125.217 158.736 126.29C159.882 127.327 162.841 130.476 162.841 130.476C162.841 130.476 158.909 128.41 158.773 128.319C158.637 128.229 154.815 126.327 154.662 127.113C154.51 127.899 158.281 131.127 158.727 131.411C159.172 131.695 162.842 134.382 162.842 134.382C162.842 134.382 158.386 133.557 157.643 133.756C156.913 133.917 155.194 134.735 155.315 136.29L167.986 139.189L171.136 140.852L180.27 131.452Z" fill="#FECE2F"/>
<path d="M225.463 252.349C225.52 247.329 213.171 243.998 202.774 242.032C188.358 239.311 169.174 237.713 148.773 237.531C128.372 237.349 109.16 238.554 94.7217 240.991C75.8603 244.169 71.8896 248.136 71.8374 250.889C71.7852 253.642 75.5253 255.893 80.6016 257.694C84.7448 259.164 89.833 260.339 94.5263 261.206C108.942 263.926 128.126 265.525 148.527 265.707C168.928 265.889 188.14 264.684 202.579 262.246C221.44 259.069 225.448 255.115 225.463 252.349Z" fill="#1A1A1A"/>
<path d="M224.513 188.808C222.616 180.533 222.156 175.079 207.684 159.487C193.211 143.896 180.233 131.439 180.233 131.439L171.086 140.876C176.959 146.236 182.564 151.878 187.825 157.776C196.263 167.279 199.612 176.908 196.076 181.071C192.54 185.234 180.596 182.299 174.259 175.641C167.949 168.909 158.44 161.714 153.286 159.423C153.286 159.423 147.454 169.701 135.431 168.292C123.395 166.919 121.651 160.463 120.584 155.297C120.584 155.297 104.026 159.208 88.5142 172.015C73.0025 184.823 63.0259 199.678 55.1013 220.594C47.1767 241.51 44.1038 266.164 43.5966 269.134C47.8362 270.806 52.5592 270.759 56.7268 268.962C56.7268 268.962 60.5619 249.031 69.2155 239.208C77.8692 229.385 82.8902 226.841 89.4066 224.701L91.3363 224C91.3363 224 88.3784 246.552 86.4506 258.383C88.9188 259.007 91.6749 259.648 94.6704 260.207C109.049 262.914 128.158 264.486 148.509 264.692C151.903 264.72 155.259 264.735 158.605 264.662C160.511 261.895 166.318 245.645 168.439 237.536L170.119 229.481C170.119 229.481 179.198 231.61 191.214 230.077C203.193 228.531 212.264 223.099 217.496 216.051C222.765 209.017 226.411 197.082 224.513 188.808Z" fill="white"/>
<path d="M138.119 110.979C135.749 113.149 134.605 115.758 135.565 116.806C136.526 117.854 139.226 116.945 141.597 114.775C143.968 112.605 145.112 109.996 144.151 108.948C143.191 107.9 140.49 108.809 138.119 110.979Z" fill="white"/>
<path d="M144.555 108.577C143.377 107.277 140.454 108.172 137.79 110.586C136.682 111.579 135.795 112.776 135.119 114.09C134.53 115.393 134.535 116.445 135.174 117.133C135.358 117.325 135.593 117.492 135.891 117.598C137.31 118.101 139.708 117.146 141.951 115.086C144.615 112.672 145.733 109.876 144.555 108.577ZM135.95 116.485C135.656 116.129 135.695 115.428 136.087 114.56C136.686 113.344 137.483 112.283 138.514 111.389C138.706 111.205 138.934 111.034 139.126 110.85C138.617 111.929 138.587 112.843 139.065 113.39C139.679 114.028 140.934 113.927 142.4 113.23C142.041 113.648 141.645 114.054 141.263 114.422C139.032 116.444 136.612 117.224 135.95 116.485Z" fill="#1A1A1A"/>
<path d="M165.357 134.518C165.319 134.505 165.245 134.479 165.221 134.428C164.986 134.261 164.966 133.96 165.134 133.725L171.084 126.429C171.251 126.195 171.59 126.189 171.787 126.343C171.985 126.497 172.028 126.848 171.874 127.045L165.924 134.342C165.807 134.552 165.581 134.598 165.357 134.518Z" fill="#1A1A1A"/>
<path d="M143.466 119.109C144.568 116.476 148.297 117.337 149.651 117.902C151.006 118.466 150.75 120.727 149.648 123.36C148.546 125.993 145.985 127.646 144.63 127.081C143.275 126.517 142.364 121.742 143.466 119.109Z" fill="#1A1A1A"/>
<path d="M144.704 127.108L144.593 127.068C143.747 126.726 143.226 125.827 143.151 124.499C143.089 123.133 143.352 121.799 143.914 120.57C145.135 117.602 147.199 117.116 148.815 117.773C149.66 118.115 150.368 117.778 150.456 119.069C150.518 120.435 150.254 121.769 149.693 122.998C149.205 124.253 148.433 125.365 147.438 126.272C146.508 127.118 145.526 127.399 144.704 127.108ZM148.582 117.481C147.649 117.15 145.92 118.468 144.858 120.989C144.386 122.082 144.139 123.254 144.179 124.444C144.237 125.346 144.526 125.953 145.011 126.125L145.049 126.138C145.496 126.297 146.127 126.059 146.776 125.533C147.656 124.711 148.338 123.735 148.773 122.63C149.244 121.537 149.492 120.365 149.452 119.175C149.394 118.273 149.105 117.666 148.619 117.494L148.582 117.481Z" fill="#1A1A1A"/>
<path d="M112.146 256.79C112.034 256.75 111.935 256.673 111.85 256.559C111.729 256.306 111.835 256.008 112.088 255.887C131.866 245.979 143.314 237.4 149.405 231.96C157.088 225.11 158.908 220.926 158.562 220.006C158.503 219.817 158.319 219.625 158.133 219.559C155.744 218.712 147.462 223.459 141.409 226.897C134.077 231.099 131.661 232.342 130.878 231.35C130.365 230.664 130.475 229.527 137.275 222.323C148.574 210.373 154.06 200.476 156.646 194.254C159.441 187.56 159.626 183.721 159.602 183.67C159.583 183.369 159.825 183.161 160.126 183.142C160.427 183.123 160.635 183.365 160.654 183.665L160.641 183.703C160.626 183.865 160.488 187.806 157.603 194.636C154.954 200.919 149.428 210.928 138.001 223C132.901 228.373 131.867 230.105 131.719 230.641C132.885 230.551 137.304 228.045 140.888 225.998C147.802 222.026 155.64 217.583 158.439 218.576L158.477 218.589C158.962 218.762 159.368 219.157 159.534 219.636C160.258 221.741 156.464 226.988 150.067 232.698C143.926 238.163 132.414 246.804 112.535 256.76C112.396 256.795 112.258 256.83 112.146 256.79Z" fill="#FECE2F"/>
<path d="M87.3924 212.018C87.0192 211.885 86.7229 211.654 86.5037 211.324C86.1376 210.817 86.0181 209.85 89.3747 205.246C91.1883 202.739 93.8818 199.411 97.3409 195.347C103.196 188.437 109.31 181.745 109.374 181.684C109.566 181.499 109.867 181.48 110.101 181.648C110.286 181.839 110.305 182.14 110.151 182.337C110.087 182.398 104.177 188.869 98.463 195.619C95.081 199.585 92.4513 202.851 90.6003 205.344C87.4772 209.528 87.3836 210.503 87.3921 210.716C88.4315 212.05 92.3676 209.247 95.8331 206.823C100.099 203.801 104.517 200.706 106.894 202.18C107.142 202.31 107.198 202.624 107.068 202.871C106.938 203.119 106.624 203.176 106.376 203.046C104.544 201.934 100.227 204.98 96.4184 207.66C92.6231 210.304 89.2587 212.68 87.3924 212.018Z" fill="#FECE2F"/>
<path d="M53.1509 242.202C52.367 241.924 52.3643 240.747 52.4603 239.647C52.7304 236.635 55.245 230.85 60.0019 222.417C63.5145 216.188 66.9996 210.747 67.0502 210.722C67.2174 210.488 67.5317 210.431 67.7665 210.599C68.0013 210.766 68.0712 211.043 67.9039 211.277C67.7872 211.488 54.0669 232.868 53.4729 239.755C53.3887 240.229 53.4166 240.742 53.4949 241.232C53.761 241.075 54.5747 240.439 56.5278 237.185C57.7564 235.143 58.8226 233.085 58.8226 233.085C58.9525 232.837 59.2426 232.73 59.528 232.874C59.7761 233.004 59.8833 233.294 59.7401 233.579C59.7401 233.579 58.5573 235.847 57.2889 238.001C54.781 242.108 53.8469 242.491 53.1991 242.303C53.1882 242.215 53.1882 242.215 53.1509 242.202Z" fill="#FECE2F"/>
<path d="M225.525 192.946C225.268 184.666 222.501 176.713 217.591 170.058C206.931 155.567 182.685 132.939 180.752 131.161C180.715 131.148 180.69 131.097 180.666 131.047C180.642 130.996 177.534 127.794 174.25 124.613C167.46 118.046 166.608 118.08 166.182 118.097C165.969 118.105 165.804 118.215 165.676 118.337C165.049 119.039 166.027 120.31 168.047 122.79C168.72 123.617 169.417 124.494 169.856 125.154C169.88 125.204 169.904 125.255 169.853 125.279C169.853 125.279 169.853 125.279 169.84 125.316C169.763 125.415 169.702 125.351 169.664 125.338C168.541 124.477 166.342 122.857 164.288 121.54C160.774 119.244 159.724 119.124 159.214 119.614C158.945 119.897 158.776 120.257 158.843 120.659C158.908 121.186 159.125 121.641 159.43 122.085C158.141 121.334 157.048 120.862 156.382 120.962C156.119 120.994 155.853 121.152 155.685 121.386C154.886 122.573 156.772 124.838 161.087 129.14C157.227 126.637 155.091 125.669 154.305 126.818C154.164 126.978 154.122 127.215 154.218 127.417C154.495 128.65 158.011 131.534 161.188 133.712C159.891 133.461 158.59 133.336 157.261 133.41C155.934 133.36 154.85 134.403 154.837 135.742C154.845 135.955 154.854 136.168 154.9 136.394C154.921 136.57 155.044 136.697 155.231 136.764C155.231 136.764 155.268 136.777 155.281 136.74L167.753 139.61L167.79 139.623C169.649 140.661 170.841 141.21 170.94 141.287C171.741 141.991 177.445 146.996 183.251 153.256C188.996 159.451 196.044 168.251 197.01 174.767C197.519 178.307 196.608 180.756 194.32 181.876C191.931 183.044 188.179 182.721 183.966 180.974C179.417 179.109 174.622 175.686 170.483 171.362C163.702 164.295 157.1 160.399 152.78 158.362C150.422 157.19 147.921 156.302 145.352 155.727L146.496 134.379C148.4 133.038 149.949 131.278 151.039 129.271C152.927 125.489 153.834 121.275 153.701 117.029C153.562 114.46 152.974 111.143 151.025 108.226C151.335 107.706 151.956 106.667 152.566 105.539C154.113 102.602 154.041 101.737 153.825 101.282C153.691 101.067 153.456 100.899 153.219 100.857C152.744 100.773 151.903 100.894 149.539 102.701C148.523 103.433 147.656 104.217 147.313 104.474C144.269 102.512 139.952 101.652 134.683 102.051C132.012 102.237 129.335 102.673 126.766 103.4C126.753 103.437 126.716 103.424 126.678 103.411C126.217 103.289 125.706 103.191 125.218 103.144C121.493 102.747 116.285 105.225 113.513 106.761C109.312 109.008 105.525 111.865 103.817 114.073C102.213 116.107 101.514 117.959 101.784 119.567C102.022 120.911 102.839 122.041 104.312 122.983C105.339 123.642 107.468 124.985 107.695 126.241C107.738 126.593 107.643 126.979 107.375 127.262C107.131 127.595 106.735 128 106.288 128.43C104.922 129.793 103.248 131.551 103.463 133.433C103.556 134.474 104.277 135.402 105.502 136.214C105.835 136.458 106.233 136.641 106.643 136.787C109.256 137.714 112.285 136.521 114.582 135.614C115.857 135.1 117.421 134.479 117.601 134.921C117.877 135.565 117.7 136.3 117.523 137.035C117.212 138.269 116.869 139.827 119.386 140.552C122.264 141.321 127.359 139.517 129.227 138.752L126.13 154.115C124.828 154.115 120.979 154.303 114.864 156.376C102.585 160.545 91.0863 169.148 83.5863 175.601C71.7555 185.85 62.2255 200.276 55.179 218.48C50.7408 229.924 47.3023 242.815 44.9055 256.915L44.8923 256.953C44.8658 257.027 44.8394 257.102 44.8502 257.19C44.2012 261.033 43.6376 264.991 43.1114 268.961C43.0981 268.999 43.0717 269.073 43.0584 269.111C43.0452 269.148 42.8648 274.04 42.8228 278.896C42.7184 289.022 43.2254 289.37 43.5963 289.628C43.7938 289.782 44.0815 289.8 44.2838 289.703C44.5871 289.559 45.1806 289.308 46.0919 284.843C46.2002 284.42 46.2711 283.983 46.342 283.546C46.5253 284.451 46.7061 285.481 46.9617 286.538C48.26 292.71 48.9777 293.175 49.2872 293.368C49.3618 293.395 49.3859 293.445 49.4738 293.435C49.6231 293.487 49.7857 293.503 49.9747 293.444C50.957 293.163 51.1046 291.325 51.2779 286.809C51.2992 285.683 51.3627 284.32 51.4298 283.419C51.701 284.314 52.0481 285.823 52.3122 287.092C53.4405 292.322 54.2444 295.505 55.7517 295.284C56.6811 295.151 56.9926 293.918 56.81 290.998C56.6987 288.942 56.3573 286.469 56.0702 284.436C57.793 288.701 59 291.103 60.1944 291.526C60.3811 291.593 60.5809 291.621 60.7567 291.6C60.983 291.554 61.1985 291.421 61.302 291.247C61.663 290.703 61.8432 289.13 60.5146 282.569C61.1685 283.095 61.7983 283.57 62.5292 283.997C62.8014 284.178 63.1241 284.334 63.4227 284.44C64.8784 284.957 65.7932 284.273 66.141 283.767C66.2445 283.594 66.236 283.381 66.1264 283.216L58.128 272.357L58.0906 272.344C57.6821 270.771 57.3651 269.651 57.2843 269.286C57.5344 267.989 60.7313 251.989 67.3768 242.377C73.056 234.187 80.7067 228.376 90.7466 224.714C90.1986 228.51 87.7822 245.627 86.0197 258.65C85.9776 258.887 86.1113 259.103 86.3352 259.182C86.3726 259.195 86.4099 259.209 86.4472 259.222C86.735 259.24 86.9769 259.032 87.019 258.795C87.9093 252.139 89.0075 244.424 89.869 237.968C91.5076 238.087 96.6965 237.912 100.29 232.048C101.983 229.289 101.984 225.258 108.302 223.677C113.638 222.378 113.669 216.132 113.555 214.202C118.663 210.345 121.797 206.249 124.375 202.418C124.542 202.183 124.448 201.856 124.251 201.702C124.016 201.535 123.702 201.591 123.535 201.826C118.703 208.931 112.048 217.027 93.5789 222.654C81.786 226.281 72.9243 232.544 66.5363 241.785C63.0847 246.776 60.5535 253.437 58.896 258.939C53.9154 259.356 47.6771 257.395 45.9601 256.785C48.3413 242.848 51.751 230.157 56.1362 218.861C62.918 201.403 71.9883 187.445 83.1269 177.37C86.8622 179.871 93.6413 178.412 99.254 173.726C103.798 169.92 106.371 165.038 106.282 161.142C109.115 159.67 112.083 158.413 115.109 157.345C116.786 156.764 118.461 156.308 120.159 155.903C120.313 157.721 120.831 159.459 121.69 161.065C122.936 163.355 125.287 166.205 129.99 167.873C130.998 168.231 132.032 168.514 133.093 168.722C138.346 169.788 143.805 168.617 148.198 165.472C150.153 164.107 151.875 162.451 153.339 160.576C153.686 160.783 154.033 160.99 154.379 161.197C161.532 165.793 167.131 172.398 170.466 180.175C172.638 185.187 175.599 197.45 170.95 223.35C170.6 225.284 170.199 227.242 169.799 229.2C169.735 229.261 169.658 229.36 169.669 229.447C169.629 229.559 169.678 229.66 169.688 229.748C166.681 243.674 162.192 257.158 157.966 264.688C157.836 264.936 157.892 265.25 158.14 265.38L158.215 265.406C158.439 265.486 158.716 265.416 158.846 265.168C163.072 257.638 167.599 244.167 170.632 230.167C175.976 231.097 181.406 231.427 186.797 231.156C191.837 230.928 196.803 229.96 201.581 228.338C207.08 226.341 211.658 223.387 215.189 219.475C222.15 211.697 225.731 202.552 225.525 192.946ZM65.0321 283.457C64.7155 283.639 64.1244 283.765 63.084 283.144C62.0063 282.51 61.0562 281.753 60.159 280.847C60.0433 280.344 59.9275 279.841 59.8251 279.3C59.4779 277.791 59.1175 276.32 58.8053 274.949L65.0321 283.457ZM56.4333 269.908C56.8202 271.305 57.8579 275.369 58.8186 279.531C60.7726 288.12 60.5962 290.157 60.4747 290.618C60.2508 290.538 59.7329 290.103 58.8632 288.408C58.0899 286.916 57.3236 285.048 56.7634 283.548C56.5007 282.867 56.2489 282.273 56.0562 281.869C55.8285 281.326 55.5876 280.821 55.0844 280.936C54.5811 281.052 54.6198 281.653 54.6935 282.393C54.7454 282.958 54.8431 283.748 54.9891 284.64C55.2545 286.498 55.5741 288.795 55.7252 290.739C55.9234 293.497 55.6479 294.155 55.5203 294.278C55.3842 294.187 55.0157 293.805 54.4385 291.878C54.0275 290.43 53.5996 288.557 53.2307 286.872C52.3555 282.824 52.0362 281.829 51.4125 281.691C51.2259 281.625 51.0369 281.684 50.872 281.794C50.3508 282.197 50.303 283.398 50.151 286.787C50.1069 288.452 49.9753 291.429 49.6709 292.287C48.9169 291.095 47.6464 285.437 46.8516 280.451C46.819 280.188 46.5842 280.021 46.3338 280.016C46.0834 280.011 45.8547 280.182 45.8367 280.469C45.3067 283.977 44.6081 287.131 44.0968 288.335C43.7567 286.451 43.667 279.952 44.07 269.932C44.2939 270.011 44.5793 270.154 44.9153 270.273C46.9682 271.002 50.862 271.753 56.4333 269.908ZM49.8146 258.951C53.1811 259.767 56.1308 260.1 58.576 259.959C57.2649 264.366 56.5219 267.882 56.3403 268.867C49.5074 271.189 45.2702 269.391 44.2033 268.845C44.6501 265.098 45.209 261.39 45.8027 257.821C46.5625 258.049 47.9941 258.515 49.8146 258.951ZM152.912 101.84C152.975 102.493 151.878 104.875 150.328 107.349C149.692 106.535 148.941 105.807 148.165 105.154C148.165 105.154 148.127 105.14 148.09 105.127C150.204 103.315 152.297 101.916 152.912 101.84ZM147.589 164.584C143.222 167.654 138.405 168.675 133.301 167.662C128.235 166.663 124.659 164.302 122.65 160.608C121.802 159.089 121.321 157.365 121.179 155.634C122.864 155.266 124.622 155.05 126.375 155.084C126.412 155.097 126.45 155.11 126.463 155.073C126.538 155.1 126.588 155.076 126.639 155.052C126.828 154.993 126.931 154.819 126.96 154.62C126.96 154.62 126.96 154.62 126.973 154.582L130.36 137.81C130.878 136.943 131.933 134.798 132.38 131.051C132.735 128.153 132.089 126.538 131.517 125.663C130.993 124.889 130.036 124.508 129.131 124.691C125.198 125.353 124.206 124.12 124.001 123.753C123.564 122.968 123.482 122.015 123.848 121.221C124.291 120.328 125.091 119.73 126.023 119.473C126.79 119.325 127.596 119.778 128.151 120.227C128.546 120.535 129.007 120.657 129.497 120.579C129.987 120.501 130.405 120.271 130.713 119.876C131.958 118.26 132.83 115.21 132.777 112.755C132.777 110.74 132.251 108.789 131.282 107.018C130.555 105.752 129.497 104.705 128.196 103.991C131.718 103.183 141.824 101.35 147.436 105.903C151.384 109.109 152.399 113.711 152.511 117.068C152.621 121.139 151.743 125.153 149.946 128.799C146.992 134.639 138.181 137.56 137.198 137.842C137.023 137.863 136.858 137.973 136.792 138.159L136.765 138.234C136.712 138.383 136.734 138.559 136.857 138.686L144.579 148.901L144.191 156.155C144.187 156.405 144.32 156.621 144.52 156.65C144.557 156.663 144.632 156.689 144.669 156.703C144.669 156.703 144.669 156.703 144.707 156.716C147.373 157.494 149.97 158.583 152.373 159.982C151.075 161.747 149.429 163.305 147.589 164.584ZM171.863 140.816L180.283 132.128C181.07 132.87 183.15 134.825 185.98 137.509L177.403 145.931C174.795 143.452 172.726 141.584 171.863 140.816ZM156.015 135.026C156.348 134.682 156.803 134.466 157.266 134.462C159.575 134.231 163.675 135.35 163.75 135.376C164.024 135.432 164.29 135.274 164.383 135.013C164.438 134.739 164.28 134.473 164.019 134.38L163.982 134.367C163.958 134.316 163.896 134.252 163.822 134.226C161.778 132.997 159.838 131.595 157.975 130.094C156.187 128.62 155.452 127.729 155.246 127.362C155.459 127.354 156.072 127.403 157.486 128.157C158.9 128.91 160.495 129.98 161.832 130.832C163.699 132.083 163.947 132.213 164.312 132.132C164.451 132.097 164.565 132.012 164.655 131.876C164.889 131.455 164.544 131.123 164.053 130.612C163.684 130.23 163.156 129.706 162.566 129.119C161.249 127.854 159.663 126.283 158.413 124.832C156.6 122.719 156.524 122.104 156.563 121.992C156.702 121.957 157.754 121.952 161.869 124.924C162.202 125.168 162.573 125.426 162.907 125.67C164.546 127.091 166.115 128.236 166.486 128.494C166.72 128.661 167.035 128.604 167.189 128.407C167.356 128.172 167.337 127.872 167.102 127.704C166.547 127.255 165.116 126.076 163.461 124.817C161.601 123.191 160.004 121.533 159.946 120.63C159.922 120.58 159.948 120.505 159.962 120.468C160.675 120.469 163.799 122.207 169.147 126.204C169.641 126.589 170.394 126.479 170.742 125.972C171.037 125.615 171.06 125.077 170.779 124.683L170.755 124.633C170.292 123.923 169.558 123.032 168.884 122.205C168.113 121.302 167.404 120.336 166.771 119.398C168.678 120.536 174.461 126.031 179.682 131.453L171.122 140.301C170.663 140.055 169.695 139.585 168.393 138.871C168.332 138.808 168.257 138.781 168.182 138.755L155.86 135.937C155.742 135.559 155.848 135.261 156.015 135.026ZM214.401 218.733C211.933 221.427 208.984 223.699 205.746 225.364C204.948 222.519 198.124 224.34 197.833 221.843C197.556 219.308 195.986 216.862 188.813 215.997C181.64 215.132 186.734 212.026 183.666 206.696C181.144 202.315 176.105 201.829 174.403 201.771C174.767 189.848 172.902 183.139 171.426 179.718C168.595 173.128 164.184 167.321 158.582 162.856C162.64 165.513 166.376 168.603 169.717 172.098C174.545 177.086 180.012 180.748 184.939 182.496C185.312 182.628 185.686 182.76 186.072 182.856L192.581 189.028C193.294 189.743 194.472 189.741 195.2 188.991C195.213 188.954 195.25 188.967 195.263 188.93C195.904 188.191 197.033 188.088 197.836 188.667L202.295 191.971C203.728 193.025 206.112 192.821 207.918 191.403C210.194 189.607 210.714 186.6 208.801 185.123L198.171 176.943C198.186 176.192 198.125 175.415 198.014 174.661C197.178 169.199 192.483 161.822 183.977 152.631C181.977 150.452 179.998 148.448 178.215 146.723L186.754 138.288C195.167 146.438 209.317 160.571 216.778 170.693C221.577 177.183 224.286 184.947 224.534 193.015C224.697 202.269 221.195 211.19 214.401 218.733Z" fill="#1A1A1A"/>
<path d="M206.976 213.957C206.864 213.918 206.803 213.854 206.742 213.79C206.571 213.561 206.639 213.25 206.868 213.079C216.788 205.847 218.39 192.683 218.392 192.558C218.41 192.27 218.652 192.062 218.94 192.08C219.228 192.098 219.436 192.34 219.418 192.628C219.418 192.628 219.418 192.628 219.405 192.665C219.003 195.336 218.328 197.952 217.316 200.449C215.775 204.438 212.801 209.976 207.416 213.903C207.302 213.989 207.126 214.01 206.976 213.957Z" fill="#FECE2F"/>
<path d="M120.568 107.248C120.419 107.195 120.333 107.081 120.285 106.98C120.165 106.727 120.308 106.442 120.561 106.322C122.62 105.373 124.989 105.331 127.09 106.16C128.01 106.529 128.877 107.046 129.603 107.724C129.787 107.915 129.793 108.253 129.602 108.437C129.41 108.621 129.109 108.641 128.888 108.436C128.765 108.308 125.692 105.244 120.944 107.256C120.805 107.291 120.68 107.288 120.568 107.248Z" fill="#FECE2F"/>
<path d="M97.2852 112.588C97.2852 112.588 93.6275 106.728 87.8105 107.63C84.241 108.171 85.2546 112.633 88.78 111.821C92.3055 111.01 95.0818 111.1 97.2852 112.588Z" fill="white"/>
<path d="M97.2852 113.038C97.4174 113.038 97.5055 112.993 97.5936 112.948C97.7258 112.813 97.7699 112.543 97.6377 112.407C97.5055 112.092 93.8038 106.233 87.7224 107.179C86.4884 107.359 85.6071 108.035 85.2545 108.982C84.9461 109.838 85.1664 110.74 85.7393 111.416C86.4444 112.227 87.5902 112.543 88.8681 112.272C92.5699 111.416 95.0817 111.641 97.0207 112.993C97.1089 113.038 97.197 113.038 97.2852 113.038ZM92.7021 110.875C91.336 110.875 90.0139 111.055 88.6919 111.371C87.7224 111.596 86.9291 111.371 86.4444 110.83C86.0918 110.424 85.9596 109.838 86.1359 109.297C86.3562 108.666 86.9732 108.216 87.8986 108.08C91.4682 107.54 94.2004 109.703 95.6987 111.326C94.7292 111.01 93.7156 110.83 92.7021 110.875Z" fill="black"/>
<path d="M94.3766 117.591C94.3766 117.591 90.2342 115.337 87.0613 117.906C85.1223 119.484 87.1935 121.782 89.0444 120.07C90.8953 118.357 92.5699 117.455 94.3766 117.591Z" fill="white"/>
<path d="M87.6783 121.151C88.2953 121.151 88.9122 120.881 89.3529 120.43C91.2479 118.672 92.7902 117.951 94.3767 118.086C94.597 118.086 94.7733 117.951 94.8174 117.771C94.8615 117.546 94.7733 117.365 94.597 117.23C94.4208 117.14 90.1902 114.886 86.797 117.591C86.1359 118.041 85.7834 118.853 85.8715 119.664C86.0037 120.34 86.4444 120.836 87.0614 121.061C87.2817 121.106 87.458 121.151 87.6783 121.151ZM92.4377 117.365C91.0275 117.861 89.7936 118.672 88.736 119.754C88.3834 120.16 87.8546 120.34 87.3258 120.205C87.0173 120.115 86.797 119.844 86.7088 119.529C86.6647 119.033 86.8851 118.582 87.3258 118.312C89.0444 116.915 91.0716 117.005 92.4377 117.365Z" fill="black"/>
<path d="M91.64 42.9526L79.5852 55.0074L75.1085 50.5307L76.6007 49.0385L79.5852 52.023L90.1478 41.4604L91.64 42.9526ZM89.2993 48.2778C89.4456 48.8922 89.5333 49.5067 89.5333 50.1504C89.5333 54.8026 85.7589 58.6063 81.0774 58.6063C76.4252 58.6063 72.6215 54.8318 72.6215 50.1504C72.6215 45.4689 76.3959 41.6944 81.0774 41.6944C82.7452 41.6944 84.2959 42.1918 85.5833 43.0111L87.1048 41.4896C85.4078 40.29 83.3011 39.5878 81.0774 39.5878C75.2548 39.5878 70.5148 44.3278 70.5148 50.1504C70.5148 55.9729 75.2548 60.713 81.0774 60.713C86.9 60.713 91.64 55.9729 91.64 50.1504C91.64 48.8922 91.4059 47.6926 90.9963 46.5807L89.2993 48.2778Z" fill="#FFCD34"/>
</g>
<defs>
<clipPath id="clip0_21:3015">
<rect width="316" height="316" fill="white"/>
</clipPath>
</defs>
</svg>
